<?xml version="1.0" encoding="UTF-8" standalone="no"?>
<!DOCTYPE svg PUBLIC "-//W3C//DTD SVG 1.1//EN"
 "http://www.w3.org/Graphics/SVG/1.1/DTD/svg11.dtd">
<!-- Generated by graphviz version 9.0.0 (20230911.1827)
 -->
<!-- Title: G Pages: 1 -->
<svg width="422pt" height="101pt"
 viewBox="0.00 0.00 422.00 101.00" xmlns="http://www.w3.org/2000/svg" xmlns:xlink="http://www.w3.org/1999/xlink">
<g id="graph0" class="graph" transform="scale(1 1) rotate(0) translate(4 97)">
<title>G</title>
<polygon fill="white" stroke="none" points="-4,4 -4,-97 418,-97 418,4 -4,4"/>
<g id="clust1" class="cluster">
<title>cluster_493dfb8e</title>
<polygon fill="none" stroke="#dddddd" points="82,-8 82,-85 332,-85 332,-8 82,-8"/>
<text text-anchor="start" x="90" y="-67.7" font-family="Times,serif" font-size="14.00" fill="#dddddd">chain</text>
</g>
<!-- String_5ce33a58 -->
<g id="node1" class="node">
<title>String_5ce33a58</title>
<polygon fill="none" stroke="black" points="54,-52 51,-56 30,-56 27,-52 0,-52 0,-16 54,-16 54,-52"/>
<text text-anchor="middle" x="27" y="-28.95" font-family="Times,serif" font-size="14.00">input</text>
</g>
<!-- T1_ce5a68e -->
<g id="node4" class="node">
<title>T1_ce5a68e</title>
<path fill="none" stroke="black" d="M132,-52C132,-52 102,-52 102,-52 96,-52 90,-46 90,-40 90,-40 90,-28 90,-28 90,-22 96,-16 102,-16 102,-16 132,-16 132,-16 138,-16 144,-22 144,-28 144,-28 144,-40 144,-40 144,-46 138,-52 132,-52"/>
<text text-anchor="start" x="109.12" y="-29.95" font-family="Times,serif" font-weight="bold" font-size="14.00">T1</text>
</g>
<!-- String_5ce33a58&#45;&gt;T1_ce5a68e -->
<g id="edge2" class="edge">
<title>String_5ce33a58&#45;&gt;T1_ce5a68e</title>
<path fill="none" stroke="black" d="M54.4,-34C61.89,-34 70.18,-34 78.2,-34"/>
<polygon fill="black" stroke="black" points="78.1,-37.5 88.1,-34 78.1,-30.5 78.1,-37.5"/>
</g>
<!-- String_78a287ed -->
<g id="node2" class="node">
<title>String_78a287ed</title>
<polygon fill="none" stroke="black" points="414,-52 411,-56 390,-56 387,-52 360,-52 360,-16 414,-16 414,-52"/>
<text text-anchor="middle" x="387" y="-28.95" font-family="Times,serif" font-size="14.00">output</text>
</g>
<!-- T3_2f162cc0 -->
<g id="node3" class="node">
<title>T3_2f162cc0</title>
<path fill="none" stroke="black" d="M312,-52C312,-52 282,-52 282,-52 276,-52 270,-46 270,-40 270,-40 270,-28 270,-28 270,-22 276,-16 282,-16 282,-16 312,-16 312,-16 318,-16 324,-22 324,-28 324,-28 324,-40 324,-40 324,-46 318,-52 312,-52"/>
<text text-anchor="start" x="289.12" y="-29.95" font-family="Times,serif" font-weight="bold" font-size="14.00">T3</text>
</g>
<!-- T3_2f162cc0&#45;&gt;String_78a287ed -->
<g id="edge1" class="edge">
<title>T3_2f162cc0&#45;&gt;String_78a287ed</title>
<path fill="none" stroke="black" d="M324.4,-34C331.89,-34 340.18,-34 348.2,-34"/>
<polygon fill="black" stroke="black" points="348.1,-37.5 358.1,-34 348.1,-30.5 348.1,-37.5"/>
</g>
<!-- T2_9d157ff -->
<g id="node5" class="node">
<title>T2_9d157ff</title>
<path fill="none" stroke="black" d="M222,-52C222,-52 192,-52 192,-52 186,-52 180,-46 180,-40 180,-40 180,-28 180,-28 180,-22 186,-16 192,-16 192,-16 222,-16 222,-16 228,-16 234,-22 234,-28 234,-28 234,-40 234,-40 234,-46 228,-52 222,-52"/>
<text text-anchor="start" x="199.12" y="-29.95" font-family="Times,serif" font-weight="bold" font-size="14.00">T2</text>
</g>
<!-- T1_ce5a68e&#45;&gt;T2_9d157ff -->
<g id="edge3" class="edge">
<title>T1_ce5a68e&#45;&gt;T2_9d157ff</title>
<path fill="none" stroke="black" d="M144.4,-34C151.89,-34 160.18,-34 168.2,-34"/>
<polygon fill="black" stroke="black" points="168.1,-37.5 178.1,-34 168.1,-30.5 168.1,-37.5"/>
</g>
<!-- T2_9d157ff&#45;&gt;T3_2f162cc0 -->
<g id="edge4" class="edge">
<title>T2_9d157ff&#45;&gt;T3_2f162cc0</title>
<path fill="none" stroke="black" d="M234.4,-34C241.89,-34 250.18,-34 258.2,-34"/>
<polygon fill="black" stroke="black" points="258.1,-37.5 268.1,-34 258.1,-30.5 258.1,-37.5"/>
</g>
</g>
</svg>
