<?xml version="1.0" encoding="UTF-8" standalone="no"?>
<!DOCTYPE svg PUBLIC "-//W3C//DTD SVG 1.1//EN"
 "http://www.w3.org/Graphics/SVG/1.1/DTD/svg11.dtd">
<!-- Generated by graphviz version 9.0.0 (20230911.1827)
 -->
<!-- Title: G Pages: 1 -->
<svg width="558pt" height="142pt"
 viewBox="0.00 0.00 557.50 142.00" xmlns="http://www.w3.org/2000/svg" xmlns:xlink="http://www.w3.org/1999/xlink">
<g id="graph0" class="graph" transform="scale(1 1) rotate(0) translate(4 138)">
<title>G</title>
<polygon fill="white" stroke="none" points="-4,4 -4,-138 553.5,-138 553.5,4 -4,4"/>
<g id="clust1" class="cluster">
<title>cluster_3e2822</title>
<polygon fill="none" stroke="#555555" points="74,-8 74,-126 475.5,-126 475.5,-8 74,-8"/>
<text text-anchor="start" x="82" y="-108.7" font-family="Times,serif" font-size="14.00" fill="#555555">combo</text>
</g>
<g id="clust2" class="cluster">
<title>cluster_6a988392</title>
<polygon fill="none" stroke="#555555" points="82,-16 82,-93 467.5,-93 467.5,-16 82,-16"/>
<text text-anchor="start" x="90" y="-75.7" font-family="Times,serif" font-size="14.00" fill="#555555">chain</text>
</g>
<!-- String_5ce33a58 -->
<g id="node1" class="node">
<title>String_5ce33a58</title>
<polygon fill="none" stroke="black" points="54,-60 51,-64 30,-64 27,-60 0,-60 0,-24 54,-24 54,-60"/>
<text text-anchor="middle" x="27" y="-36.95" font-family="Times,serif" font-size="14.00">input</text>
</g>
<!-- Include_3ebff828 -->
<g id="node3" class="node">
<title>Include_3ebff828</title>
<path fill="none" stroke="black" d="M149.5,-60C149.5,-60 102,-60 102,-60 96,-60 90,-54 90,-48 90,-48 90,-36 90,-36 90,-30 96,-24 102,-24 102,-24 149.5,-24 149.5,-24 155.5,-24 161.5,-30 161.5,-36 161.5,-36 161.5,-48 161.5,-48 161.5,-54 155.5,-60 149.5,-60"/>
<text text-anchor="start" x="104" y="-43.7" font-family="Times,serif" font-weight="bold" font-size="14.00">Include</text>
<text text-anchor="start" x="98" y="-29.7" font-family="Times,serif" font-size="14.00">**/*.yaml</text>
</g>
<!-- String_5ce33a58&#45;&gt;Include_3ebff828 -->
<g id="edge1" class="edge">
<title>String_5ce33a58&#45;&gt;Include_3ebff828</title>
<path fill="none" stroke="black" d="M54.44,-42C61.81,-42 70.06,-42 78.23,-42"/>
<polygon fill="black" stroke="black" points="78.12,-45.5 88.12,-42 78.12,-38.5 78.12,-45.5"/>
</g>
<!-- String_78a287ed -->
<g id="node2" class="node">
<title>String_78a287ed</title>
<polygon fill="none" stroke="black" points="549.5,-60 546.5,-64 525.5,-64 522.5,-60 495.5,-60 495.5,-24 549.5,-24 549.5,-60"/>
<text text-anchor="middle" x="522.5" y="-36.95" font-family="Times,serif" font-size="14.00">output</text>
</g>
<!-- Exclude_33352f32 -->
<g id="node5" class="node">
<title>Exclude_33352f32</title>
<path fill="none" stroke="black" d="M267.5,-60C267.5,-60 209.5,-60 209.5,-60 203.5,-60 197.5,-54 197.5,-48 197.5,-48 197.5,-36 197.5,-36 197.5,-30 203.5,-24 209.5,-24 209.5,-24 267.5,-24 267.5,-24 273.5,-24 279.5,-30 279.5,-36 279.5,-36 279.5,-48 279.5,-48 279.5,-54 273.5,-60 267.5,-60"/>
<text text-anchor="start" x="215.25" y="-43.7" font-family="Times,serif" font-weight="bold" font-size="14.00">Exclude</text>
<text text-anchor="start" x="205.5" y="-29.7" font-family="Times,serif" font-size="14.00">**/secret/**</text>
</g>
<!-- Include_3ebff828&#45;&gt;Exclude_33352f32 -->
<g id="edge3" class="edge">
<title>Include_3ebff828&#45;&gt;Exclude_33352f32</title>
<path fill="none" stroke="black" d="M161.79,-42C169.46,-42 177.73,-42 185.89,-42"/>
<polygon fill="black" stroke="black" points="185.77,-45.5 195.77,-42 185.77,-38.5 185.77,-45.5"/>
</g>
<!-- T2_1849db1a -->
<g id="node4" class="node">
<title>T2_1849db1a</title>
<path fill="none" stroke="black" d="M447.5,-60C447.5,-60 417.5,-60 417.5,-60 411.5,-60 405.5,-54 405.5,-48 405.5,-48 405.5,-36 405.5,-36 405.5,-30 411.5,-24 417.5,-24 417.5,-24 447.5,-24 447.5,-24 453.5,-24 459.5,-30 459.5,-36 459.5,-36 459.5,-48 459.5,-48 459.5,-54 453.5,-60 447.5,-60"/>
<text text-anchor="start" x="424.62" y="-37.95" font-family="Times,serif" font-weight="bold" font-size="14.00">T2</text>
</g>
<!-- T2_1849db1a&#45;&gt;String_78a287ed -->
<g id="edge2" class="edge">
<title>T2_1849db1a&#45;&gt;String_78a287ed</title>
<path fill="none" stroke="black" d="M459.9,-42C467.39,-42 475.68,-42 483.7,-42"/>
<polygon fill="black" stroke="black" points="483.6,-45.5 493.6,-42 483.6,-38.5 483.6,-45.5"/>
</g>
<!-- T1_29a60c27 -->
<g id="node6" class="node">
<title>T1_29a60c27</title>
<path fill="none" stroke="black" d="M357.5,-60C357.5,-60 327.5,-60 327.5,-60 321.5,-60 315.5,-54 315.5,-48 315.5,-48 315.5,-36 315.5,-36 315.5,-30 321.5,-24 327.5,-24 327.5,-24 357.5,-24 357.5,-24 363.5,-24 369.5,-30 369.5,-36 369.5,-36 369.5,-48 369.5,-48 369.5,-54 363.5,-60 357.5,-60"/>
<text text-anchor="start" x="334.62" y="-37.95" font-family="Times,serif" font-weight="bold" font-size="14.00">T1</text>
</g>
<!-- Exclude_33352f32&#45;&gt;T1_29a60c27 -->
<g id="edge4" class="edge">
<title>Exclude_33352f32&#45;&gt;T1_29a60c27</title>
<path fill="none" stroke="black" d="M279.81,-42C287.73,-42 296,-42 303.82,-42"/>
<polygon fill="black" stroke="black" points="303.73,-45.5 313.73,-42 303.73,-38.5 303.73,-45.5"/>
</g>
<!-- T1_29a60c27&#45;&gt;T2_1849db1a -->
<g id="edge5" class="edge">
<title>T1_29a60c27&#45;&gt;T2_1849db1a</title>
<path fill="none" stroke="black" d="M369.9,-42C377.39,-42 385.68,-42 393.7,-42"/>
<polygon fill="black" stroke="black" points="393.6,-45.5 403.6,-42 393.6,-38.5 393.6,-45.5"/>
</g>
</g>
</svg>
