<?xml version="1.0" encoding="UTF-8" standalone="no"?>
<!DOCTYPE svg PUBLIC "-//W3C//DTD SVG 1.1//EN"
 "http://www.w3.org/Graphics/SVG/1.1/DTD/svg11.dtd">
<!-- Generated by graphviz version 9.0.0 (20230911.1827)
 -->
<!-- Title: G Pages: 1 -->
<svg width="561pt" height="391pt"
 viewBox="0.00 0.00 560.50 391.00" xmlns="http://www.w3.org/2000/svg" xmlns:xlink="http://www.w3.org/1999/xlink">
<g id="graph0" class="graph" transform="scale(1 1) rotate(0) translate(4 387)">
<title>G</title>
<polygon fill="white" stroke="none" points="-4,4 -4,-387 556.5,-387 556.5,4 -4,4"/>
<g id="clust1" class="cluster">
<title>cluster_5733f295</title>
<polygon fill="none" stroke="#dddddd" points="62,-8 62,-375 478.5,-375 478.5,-8 62,-8"/>
<text text-anchor="start" x="70" y="-357.7" font-family="Times,serif" font-size="14.00" fill="#dddddd">combo</text>
</g>
<g id="clust2" class="cluster">
<title>cluster_83298d7</title>
<polygon fill="none" stroke="#dddddd" points="70,-16 70,-342 470.5,-342 470.5,-16 70,-16"/>
<text text-anchor="start" x="78" y="-324.7" font-family="Times,serif" font-size="14.00" fill="#dddddd">chain</text>
</g>
<g id="clust3" class="cluster">
<title>cluster_7d3430a7</title>
<polygon fill="none" stroke="#dddddd" points="78,-24 78,-309 365.5,-309 365.5,-24 78,-24"/>
<text text-anchor="start" x="86" y="-291.7" font-family="Times,serif" font-size="14.00" fill="#dddddd">merge</text>
</g>
<g id="clust4" class="cluster">
<title>cluster_efde75f</title>
<polygon fill="none" stroke="#dddddd" points="86,-158 86,-276 357.5,-276 357.5,-158 86,-158"/>
<text text-anchor="start" x="94" y="-258.7" font-family="Times,serif" font-size="14.00" fill="#dddddd">combo</text>
</g>
<g id="clust5" class="cluster">
<title>cluster_6c8bca63</title>
<polygon fill="none" stroke="#dddddd" points="94,-166 94,-243 349.5,-243 349.5,-166 94,-166"/>
<text text-anchor="start" x="102" y="-225.7" font-family="Times,serif" font-size="14.00" fill="#dddddd">chain</text>
</g>
<g id="clust6" class="cluster">
<title>cluster_2bef51f2</title>
<polygon fill="none" stroke="#dddddd" points="86,-32 86,-150 357.5,-150 357.5,-32 86,-32"/>
<text text-anchor="start" x="94" y="-132.7" font-family="Times,serif" font-size="14.00" fill="#dddddd">combo</text>
</g>
<g id="clust7" class="cluster">
<title>cluster_1bc715b8</title>
<polygon fill="none" stroke="#dddddd" points="94,-40 94,-117 349.5,-117 349.5,-40 94,-40"/>
<text text-anchor="start" x="102" y="-99.7" font-family="Times,serif" font-size="14.00" fill="#dddddd">chain</text>
</g>
<!-- String_5ce33a58 -->
<g id="node1" class="node">
<title>String_5ce33a58</title>
<polygon fill="none" stroke="black" points="54,-147 51,-151 30,-151 27,-147 0,-147 0,-111 54,-111 54,-147"/>
<text text-anchor="middle" x="27" y="-123.95" font-family="Times,serif" font-size="14.00">input</text>
</g>
<!-- Include_3f1c5af9 -->
<g id="node4" class="node">
<title>Include_3f1c5af9</title>
<path fill="none" stroke="black" d="M149.5,-84C149.5,-84 114,-84 114,-84 108,-84 102,-78 102,-72 102,-72 102,-60 102,-60 102,-54 108,-48 114,-48 114,-48 149.5,-48 149.5,-48 155.5,-48 161.5,-54 161.5,-60 161.5,-60 161.5,-72 161.5,-72 161.5,-78 155.5,-84 149.5,-84"/>
<text text-anchor="start" x="110" y="-67.7" font-family="Times,serif" font-weight="bold" font-size="14.00">Include</text>
<text text-anchor="start" x="115.62" y="-53.7" font-family="Times,serif" font-size="14.00">*.xml</text>
</g>
<!-- String_5ce33a58&#45;&gt;Include_3f1c5af9 -->
<g id="edge2" class="edge">
<title>String_5ce33a58&#45;&gt;Include_3f1c5af9</title>
<path fill="none" stroke="black" d="M54.46,-112.78C65.91,-105.76 79.53,-97.4 92.08,-89.71"/>
<polygon fill="black" stroke="black" points="93.86,-92.72 100.56,-84.51 90.21,-86.75 93.86,-92.72"/>
</g>
<!-- Include_5ef0d29e -->
<g id="node5" class="node">
<title>Include_5ef0d29e</title>
<path fill="none" stroke="black" d="M149.5,-210C149.5,-210 114,-210 114,-210 108,-210 102,-204 102,-198 102,-198 102,-186 102,-186 102,-180 108,-174 114,-174 114,-174 149.5,-174 149.5,-174 155.5,-174 161.5,-180 161.5,-186 161.5,-186 161.5,-198 161.5,-198 161.5,-204 155.5,-210 149.5,-210"/>
<text text-anchor="start" x="110" y="-193.7" font-family="Times,serif" font-weight="bold" font-size="14.00">Include</text>
<text text-anchor="start" x="112.62" y="-179.7" font-family="Times,serif" font-size="14.00">*.yaml</text>
</g>
<!-- String_5ce33a58&#45;&gt;Include_5ef0d29e -->
<g id="edge3" class="edge">
<title>String_5ce33a58&#45;&gt;Include_5ef0d29e</title>
<path fill="none" stroke="black" d="M54.46,-145.22C65.91,-152.24 79.53,-160.6 92.08,-168.29"/>
<polygon fill="black" stroke="black" points="90.21,-171.25 100.56,-173.49 93.86,-165.28 90.21,-171.25"/>
</g>
<!-- String_78a287ed -->
<g id="node2" class="node">
<title>String_78a287ed</title>
<polygon fill="none" stroke="black" points="552.5,-147 549.5,-151 528.5,-151 525.5,-147 498.5,-147 498.5,-111 552.5,-111 552.5,-147"/>
<text text-anchor="middle" x="525.5" y="-123.95" font-family="Times,serif" font-size="14.00">output</text>
</g>
<!-- UniquePath_2756c0a7 -->
<g id="node3" class="node">
<title>UniquePath_2756c0a7</title>
<path fill="none" stroke="black" d="M450.5,-147C450.5,-147 389.5,-147 389.5,-147 383.5,-147 377.5,-141 377.5,-135 377.5,-135 377.5,-123 377.5,-123 377.5,-117 383.5,-111 389.5,-111 389.5,-111 450.5,-111 450.5,-111 456.5,-111 462.5,-117 462.5,-123 462.5,-123 462.5,-135 462.5,-135 462.5,-141 456.5,-147 450.5,-147"/>
<text text-anchor="start" x="385.5" y="-130.7" font-family="Times,serif" font-weight="bold" font-size="14.00">UniquePath</text>
<text text-anchor="start" x="397.88" y="-116.7" font-family="Times,serif" font-size="14.00">UseLast</text>
</g>
<!-- UniquePath_2756c0a7&#45;&gt;String_78a287ed -->
<g id="edge1" class="edge">
<title>UniquePath_2756c0a7&#45;&gt;String_78a287ed</title>
<path fill="none" stroke="black" d="M462.8,-129C470.7,-129 478.92,-129 486.68,-129"/>
<polygon fill="black" stroke="black" points="486.51,-132.5 496.51,-129 486.51,-125.5 486.51,-132.5"/>
</g>
<!-- T3_30f5a68a -->
<g id="node9" class="node">
<title>T3_30f5a68a</title>
<path fill="none" stroke="black" d="M239.5,-84C239.5,-84 209.5,-84 209.5,-84 203.5,-84 197.5,-78 197.5,-72 197.5,-72 197.5,-60 197.5,-60 197.5,-54 203.5,-48 209.5,-48 209.5,-48 239.5,-48 239.5,-48 245.5,-48 251.5,-54 251.5,-60 251.5,-60 251.5,-72 251.5,-72 251.5,-78 245.5,-84 239.5,-84"/>
<text text-anchor="start" x="216.62" y="-61.95" font-family="Times,serif" font-weight="bold" font-size="14.00">T3</text>
</g>
<!-- Include_3f1c5af9&#45;&gt;T3_30f5a68a -->
<g id="edge8" class="edge">
<title>Include_3f1c5af9&#45;&gt;T3_30f5a68a</title>
<path fill="none" stroke="black" d="M161.96,-66C169.55,-66 177.84,-66 185.79,-66"/>
<polygon fill="black" stroke="black" points="185.59,-69.5 195.59,-66 185.59,-62.5 185.59,-69.5"/>
</g>
<!-- T1_618c5d94 -->
<g id="node8" class="node">
<title>T1_618c5d94</title>
<path fill="none" stroke="black" d="M239.5,-210C239.5,-210 209.5,-210 209.5,-210 203.5,-210 197.5,-204 197.5,-198 197.5,-198 197.5,-186 197.5,-186 197.5,-180 203.5,-174 209.5,-174 209.5,-174 239.5,-174 239.5,-174 245.5,-174 251.5,-180 251.5,-186 251.5,-186 251.5,-198 251.5,-198 251.5,-204 245.5,-210 239.5,-210"/>
<text text-anchor="start" x="216.62" y="-187.95" font-family="Times,serif" font-weight="bold" font-size="14.00">T1</text>
</g>
<!-- Include_5ef0d29e&#45;&gt;T1_618c5d94 -->
<g id="edge6" class="edge">
<title>Include_5ef0d29e&#45;&gt;T1_618c5d94</title>
<path fill="none" stroke="black" d="M161.96,-192C169.55,-192 177.84,-192 185.79,-192"/>
<polygon fill="black" stroke="black" points="185.59,-195.5 195.59,-192 185.59,-188.5 185.59,-195.5"/>
</g>
<!-- T4_1e1d3956 -->
<g id="node6" class="node">
<title>T4_1e1d3956</title>
<path fill="none" stroke="black" d="M329.5,-84C329.5,-84 299.5,-84 299.5,-84 293.5,-84 287.5,-78 287.5,-72 287.5,-72 287.5,-60 287.5,-60 287.5,-54 293.5,-48 299.5,-48 299.5,-48 329.5,-48 329.5,-48 335.5,-48 341.5,-54 341.5,-60 341.5,-60 341.5,-72 341.5,-72 341.5,-78 335.5,-84 329.5,-84"/>
<text text-anchor="start" x="306.62" y="-61.95" font-family="Times,serif" font-weight="bold" font-size="14.00">T4</text>
</g>
<!-- T4_1e1d3956&#45;&gt;UniquePath_2756c0a7 -->
<g id="edge4" class="edge">
<title>T4_1e1d3956&#45;&gt;UniquePath_2756c0a7</title>
<path fill="none" stroke="black" d="M341.89,-82.06C353.13,-88.91 366.5,-97.05 378.93,-104.61"/>
<polygon fill="black" stroke="black" points="376.97,-107.52 387.34,-109.73 380.61,-101.54 376.97,-107.52"/>
</g>
<!-- T2_5b40ceb -->
<g id="node7" class="node">
<title>T2_5b40ceb</title>
<path fill="none" stroke="black" d="M329.5,-210C329.5,-210 299.5,-210 299.5,-210 293.5,-210 287.5,-204 287.5,-198 287.5,-198 287.5,-186 287.5,-186 287.5,-180 293.5,-174 299.5,-174 299.5,-174 329.5,-174 329.5,-174 335.5,-174 341.5,-180 341.5,-186 341.5,-186 341.5,-198 341.5,-198 341.5,-204 335.5,-210 329.5,-210"/>
<text text-anchor="start" x="306.62" y="-187.95" font-family="Times,serif" font-weight="bold" font-size="14.00">T2</text>
</g>
<!-- T2_5b40ceb&#45;&gt;UniquePath_2756c0a7 -->
<g id="edge5" class="edge">
<title>T2_5b40ceb&#45;&gt;UniquePath_2756c0a7</title>
<path fill="none" stroke="black" d="M341.89,-175.94C353.13,-169.09 366.5,-160.95 378.93,-153.39"/>
<polygon fill="black" stroke="black" points="380.61,-156.46 387.34,-148.27 376.97,-150.48 380.61,-156.46"/>
</g>
<!-- T1_618c5d94&#45;&gt;T2_5b40ceb -->
<g id="edge7" class="edge">
<title>T1_618c5d94&#45;&gt;T2_5b40ceb</title>
<path fill="none" stroke="black" d="M251.9,-192C259.39,-192 267.68,-192 275.7,-192"/>
<polygon fill="black" stroke="black" points="275.6,-195.5 285.6,-192 275.6,-188.5 275.6,-195.5"/>
</g>
<!-- T3_30f5a68a&#45;&gt;T4_1e1d3956 -->
<g id="edge9" class="edge">
<title>T3_30f5a68a&#45;&gt;T4_1e1d3956</title>
<path fill="none" stroke="black" d="M251.9,-66C259.39,-66 267.68,-66 275.7,-66"/>
<polygon fill="black" stroke="black" points="275.6,-69.5 285.6,-66 275.6,-62.5 275.6,-69.5"/>
</g>
</g>
</svg>
