<?xml version="1.0" encoding="UTF-8" standalone="no"?>
<!DOCTYPE svg PUBLIC "-//W3C//DTD SVG 1.1//EN"
 "http://www.w3.org/Graphics/SVG/1.1/DTD/svg11.dtd">
<!-- Generated by graphviz version 9.0.0 (20230911.1827)
 -->
<!-- Title: G Pages: 1 -->
<svg width="453pt" height="101pt"
 viewBox="0.00 0.00 453.00 101.00" xmlns="http://www.w3.org/2000/svg" xmlns:xlink="http://www.w3.org/1999/xlink">
<g id="graph0" class="graph" transform="scale(1 1) rotate(0) translate(4 97)">
<title>G</title>
<polygon fill="white" stroke="none" points="-4,4 -4,-97 449,-97 449,4 -4,4"/>
<g id="clust1" class="cluster">
<title>cluster_4fad94a7</title>
<polygon fill="none" stroke="#555555" points="82,-8 82,-85 363,-85 363,-8 82,-8"/>
<text text-anchor="start" x="90" y="-67.7" font-family="Times,serif" font-size="14.00" fill="#555555">chain</text>
</g>
<!-- String_5ce33a58 -->
<g id="node1" class="node">
<title>String_5ce33a58</title>
<polygon fill="none" stroke="black" points="54,-52 51,-56 30,-56 27,-52 0,-52 0,-16 54,-16 54,-52"/>
<text text-anchor="middle" x="27" y="-28.95" font-family="Times,serif" font-size="14.00">input</text>
</g>
<!-- T1_5241cf67 -->
<g id="node4" class="node">
<title>T1_5241cf67</title>
<path fill="none" stroke="black" d="M132,-52C132,-52 102,-52 102,-52 96,-52 90,-46 90,-40 90,-40 90,-28 90,-28 90,-22 96,-16 102,-16 102,-16 132,-16 132,-16 138,-16 144,-22 144,-28 144,-28 144,-40 144,-40 144,-46 138,-52 132,-52"/>
<text text-anchor="start" x="109.12" y="-29.95" font-family="Times,serif" font-weight="bold" font-size="14.00">T1</text>
</g>
<!-- String_5ce33a58&#45;&gt;T1_5241cf67 -->
<g id="edge2" class="edge">
<title>String_5ce33a58&#45;&gt;T1_5241cf67</title>
<path fill="none" stroke="black" d="M54.4,-34C61.89,-34 70.18,-34 78.2,-34"/>
<polygon fill="black" stroke="black" points="78.1,-37.5 88.1,-34 78.1,-30.5 78.1,-37.5"/>
</g>
<!-- String_78a287ed -->
<g id="node2" class="node">
<title>String_78a287ed</title>
<polygon fill="none" stroke="black" points="445,-52 442,-56 421,-56 418,-52 391,-52 391,-16 445,-16 445,-52"/>
<text text-anchor="middle" x="418" y="-28.95" font-family="Times,serif" font-size="14.00">output</text>
</g>
<!-- UniquePath_77192705 -->
<g id="node3" class="node">
<title>UniquePath_77192705</title>
<path fill="none" stroke="black" d="M343,-52C343,-52 282,-52 282,-52 276,-52 270,-46 270,-40 270,-40 270,-28 270,-28 270,-22 276,-16 282,-16 282,-16 343,-16 343,-16 349,-16 355,-22 355,-28 355,-28 355,-40 355,-40 355,-46 349,-52 343,-52"/>
<text text-anchor="start" x="278" y="-35.7" font-family="Times,serif" font-weight="bold" font-size="14.00">UniquePath</text>
<text text-anchor="start" x="302" y="-21.7" font-family="Times,serif" font-size="14.00">Fail</text>
</g>
<!-- UniquePath_77192705&#45;&gt;String_78a287ed -->
<g id="edge1" class="edge">
<title>UniquePath_77192705&#45;&gt;String_78a287ed</title>
<path fill="none" stroke="black" d="M355.3,-34C363.2,-34 371.42,-34 379.18,-34"/>
<polygon fill="black" stroke="black" points="379.01,-37.5 389.01,-34 379.01,-30.5 379.01,-37.5"/>
</g>
<!-- T2_716a7124 -->
<g id="node5" class="node">
<title>T2_716a7124</title>
<path fill="none" stroke="black" d="M222,-52C222,-52 192,-52 192,-52 186,-52 180,-46 180,-40 180,-40 180,-28 180,-28 180,-22 186,-16 192,-16 192,-16 222,-16 222,-16 228,-16 234,-22 234,-28 234,-28 234,-40 234,-40 234,-46 228,-52 222,-52"/>
<text text-anchor="start" x="199.12" y="-29.95" font-family="Times,serif" font-weight="bold" font-size="14.00">T2</text>
</g>
<!-- T1_5241cf67&#45;&gt;T2_716a7124 -->
<g id="edge3" class="edge">
<title>T1_5241cf67&#45;&gt;T2_716a7124</title>
<path fill="none" stroke="black" d="M144.4,-34C151.89,-34 160.18,-34 168.2,-34"/>
<polygon fill="black" stroke="black" points="168.1,-37.5 178.1,-34 168.1,-30.5 168.1,-37.5"/>
</g>
<!-- T2_716a7124&#45;&gt;UniquePath_77192705 -->
<g id="edge4" class="edge">
<title>T2_716a7124&#45;&gt;UniquePath_77192705</title>
<path fill="none" stroke="black" d="M234.39,-34C241.8,-34 250.13,-34 258.51,-34"/>
<polygon fill="black" stroke="black" points="258.36,-37.5 268.36,-34 258.36,-30.5 258.36,-37.5"/>
</g>
</g>
</svg>
