<?xml version="1.0" encoding="UTF-8" standalone="no"?>
<!DOCTYPE svg PUBLIC "-//W3C//DTD SVG 1.1//EN"
 "http://www.w3.org/Graphics/SVG/1.1/DTD/svg11.dtd">
<!-- Generated by graphviz version 9.0.0 (20230911.1827)
 -->
<!-- Title: G Pages: 1 -->
<svg width="353pt" height="98pt"
 viewBox="0.00 0.00 353.00 98.00" xmlns="http://www.w3.org/2000/svg" xmlns:xlink="http://www.w3.org/1999/xlink">
<g id="graph0" class="graph" transform="scale(1 1) rotate(0) translate(4 94)">
<title>G</title>
<polygon fill="white" stroke="none" points="-4,4 -4,-94 349,-94 349,4 -4,4"/>
<!-- String_5ce33a58 -->
<g id="node1" class="node">
<title>String_5ce33a58</title>
<polygon fill="none" stroke="black" points="95.5,-90 92.5,-94 71.5,-94 68.5,-90 0,-90 0,0 95.5,0 95.5,-90"/>
<text text-anchor="middle" x="47.75" y="-72.7" font-family="Times,serif" font-size="14.00">input</text>
<text text-anchor="middle" x="47.75" y="-40.2" font-family="Times,serif" font-size="14.00">README.md</text>
<text text-anchor="middle" x="47.75" y="-23.7" font-family="Times,serif" font-size="14.00">secret/passwd</text>
<text text-anchor="middle" x="47.75" y="-7.2" font-family="Times,serif" font-size="14.00">picture.png</text>
</g>
<!-- Exclude_3ebff828 -->
<g id="node2" class="node">
<title>Exclude_3ebff828</title>
<path fill="none" stroke="black" d="M201.5,-63C201.5,-63 143.5,-63 143.5,-63 137.5,-63 131.5,-57 131.5,-51 131.5,-51 131.5,-39 131.5,-39 131.5,-33 137.5,-27 143.5,-27 143.5,-27 201.5,-27 201.5,-27 207.5,-27 213.5,-33 213.5,-39 213.5,-39 213.5,-51 213.5,-51 213.5,-57 207.5,-63 201.5,-63"/>
<text text-anchor="start" x="149.25" y="-46.7" font-family="Times,serif" font-weight="bold" font-size="14.00">Exclude</text>
<text text-anchor="start" x="139.5" y="-32.7" font-family="Times,serif" font-size="14.00">**/secret/**</text>
</g>
<!-- String_5ce33a58&#45;&gt;Exclude_3ebff828 -->
<g id="edge1" class="edge">
<title>String_5ce33a58&#45;&gt;Exclude_3ebff828</title>
<path fill="none" stroke="black" d="M95.86,-45C103.67,-45 111.81,-45 119.73,-45"/>
<polygon fill="black" stroke="black" points="119.6,-48.5 129.6,-45 119.6,-41.5 119.6,-48.5"/>
</g>
<!-- String_78a287ed -->
<g id="node3" class="node">
<title>String_78a287ed</title>
<polygon fill="none" stroke="black" points="345,-81.75 342,-85.75 321,-85.75 318,-81.75 249.5,-81.75 249.5,-8.25 345,-8.25 345,-81.75"/>
<text text-anchor="middle" x="297.25" y="-64.45" font-family="Times,serif" font-size="14.00">output</text>
<text text-anchor="middle" x="297.25" y="-31.95" font-family="Times,serif" font-size="14.00">README.md</text>
<text text-anchor="middle" x="297.25" y="-15.45" font-family="Times,serif" font-size="14.00">picture.png</text>
</g>
<!-- Exclude_3ebff828&#45;&gt;String_78a287ed -->
<g id="edge2" class="edge">
<title>Exclude_3ebff828&#45;&gt;String_78a287ed</title>
<path fill="none" stroke="black" d="M213.69,-45C221.39,-45 229.6,-45 237.74,-45"/>
<polygon fill="black" stroke="black" points="237.62,-48.5 247.62,-45 237.62,-41.5 237.62,-48.5"/>
</g>
</g>
</svg>
