<?xml version="1.0" encoding="UTF-8" standalone="no"?>
<!DOCTYPE svg PUBLIC "-//W3C//DTD SVG 1.1//EN"
 "http://www.w3.org/Graphics/SVG/1.1/DTD/svg11.dtd">
<!-- Generated by graphviz version 9.0.0 (20230911.1827)
 -->
<!-- Title: G Pages: 1 -->
<svg width="242pt" height="209pt"
 viewBox="0.00 0.00 242.00 209.00" xmlns="http://www.w3.org/2000/svg" xmlns:xlink="http://www.w3.org/1999/xlink">
<g id="graph0" class="graph" transform="scale(1 1) rotate(0) translate(4 205)">
<title>G</title>
<polygon fill="white" stroke="none" points="-4,4 -4,-205 238,-205 238,4 -4,4"/>
<g id="clust1" class="cluster">
<title>cluster_37ebc9d8</title>
<polygon fill="none" stroke="#dddddd" points="82,-8 82,-193 152,-193 152,-8 82,-8"/>
<text text-anchor="start" x="90" y="-175.7" font-family="Times,serif" font-size="14.00" fill="#dddddd">merge</text>
</g>
<!-- String_5ce33a58 -->
<g id="node1" class="node">
<title>String_5ce33a58</title>
<polygon fill="none" stroke="black" points="54,-106 51,-110 30,-110 27,-106 0,-106 0,-70 54,-70 54,-106"/>
<text text-anchor="middle" x="27" y="-82.95" font-family="Times,serif" font-size="14.00">input</text>
</g>
<!-- T1_2416a51 -->
<g id="node3" class="node">
<title>T1_2416a51</title>
<path fill="none" stroke="black" d="M132,-160C132,-160 102,-160 102,-160 96,-160 90,-154 90,-148 90,-148 90,-136 90,-136 90,-130 96,-124 102,-124 102,-124 132,-124 132,-124 138,-124 144,-130 144,-136 144,-136 144,-148 144,-148 144,-154 138,-160 132,-160"/>
<text text-anchor="start" x="109.12" y="-137.95" font-family="Times,serif" font-weight="bold" font-size="14.00">T1</text>
</g>
<!-- String_5ce33a58&#45;&gt;T1_2416a51 -->
<g id="edge1" class="edge">
<title>String_5ce33a58&#45;&gt;T1_2416a51</title>
<path fill="none" stroke="black" d="M54.4,-104.2C62.41,-109.11 71.34,-114.6 79.87,-119.83"/>
<polygon fill="black" stroke="black" points="77.97,-122.77 88.33,-125.02 81.63,-116.8 77.97,-122.77"/>
</g>
<!-- T2_6fa590ba -->
<g id="node4" class="node">
<title>T2_6fa590ba</title>
<path fill="none" stroke="black" d="M132,-106C132,-106 102,-106 102,-106 96,-106 90,-100 90,-94 90,-94 90,-82 90,-82 90,-76 96,-70 102,-70 102,-70 132,-70 132,-70 138,-70 144,-76 144,-82 144,-82 144,-94 144,-94 144,-100 138,-106 132,-106"/>
<text text-anchor="start" x="109.12" y="-83.95" font-family="Times,serif" font-weight="bold" font-size="14.00">T2</text>
</g>
<!-- String_5ce33a58&#45;&gt;T2_6fa590ba -->
<g id="edge2" class="edge">
<title>String_5ce33a58&#45;&gt;T2_6fa590ba</title>
<path fill="none" stroke="black" d="M54.4,-88C61.89,-88 70.18,-88 78.2,-88"/>
<polygon fill="black" stroke="black" points="78.1,-91.5 88.1,-88 78.1,-84.5 78.1,-91.5"/>
</g>
<!-- T3_6e9319f -->
<g id="node5" class="node">
<title>T3_6e9319f</title>
<path fill="none" stroke="black" d="M132,-52C132,-52 102,-52 102,-52 96,-52 90,-46 90,-40 90,-40 90,-28 90,-28 90,-22 96,-16 102,-16 102,-16 132,-16 132,-16 138,-16 144,-22 144,-28 144,-28 144,-40 144,-40 144,-46 138,-52 132,-52"/>
<text text-anchor="start" x="109.12" y="-29.95" font-family="Times,serif" font-weight="bold" font-size="14.00">T3</text>
</g>
<!-- String_5ce33a58&#45;&gt;T3_6e9319f -->
<g id="edge3" class="edge">
<title>String_5ce33a58&#45;&gt;T3_6e9319f</title>
<path fill="none" stroke="black" d="M54.4,-71.8C62.41,-66.89 71.34,-61.4 79.87,-56.17"/>
<polygon fill="black" stroke="black" points="81.63,-59.2 88.33,-50.98 77.97,-53.23 81.63,-59.2"/>
</g>
<!-- String_78a287ed -->
<g id="node2" class="node">
<title>String_78a287ed</title>
<polygon fill="none" stroke="black" points="234,-106 231,-110 210,-110 207,-106 180,-106 180,-70 234,-70 234,-106"/>
<text text-anchor="middle" x="207" y="-82.95" font-family="Times,serif" font-size="14.00">output</text>
</g>
<!-- T1_2416a51&#45;&gt;String_78a287ed -->
<g id="edge4" class="edge">
<title>T1_2416a51&#45;&gt;String_78a287ed</title>
<path fill="none" stroke="black" d="M144.4,-125.8C152.41,-120.89 161.34,-115.4 169.87,-110.17"/>
<polygon fill="black" stroke="black" points="171.63,-113.2 178.33,-104.98 167.97,-107.23 171.63,-113.2"/>
</g>
<!-- T2_6fa590ba&#45;&gt;String_78a287ed -->
<g id="edge5" class="edge">
<title>T2_6fa590ba&#45;&gt;String_78a287ed</title>
<path fill="none" stroke="black" d="M144.4,-88C151.89,-88 160.18,-88 168.2,-88"/>
<polygon fill="black" stroke="black" points="168.1,-91.5 178.1,-88 168.1,-84.5 168.1,-91.5"/>
</g>
<!-- T3_6e9319f&#45;&gt;String_78a287ed -->
<g id="edge6" class="edge">
<title>T3_6e9319f&#45;&gt;String_78a287ed</title>
<path fill="none" stroke="black" d="M144.4,-50.2C152.41,-55.11 161.34,-60.6 169.87,-65.83"/>
<polygon fill="black" stroke="black" points="167.97,-68.77 178.33,-71.02 171.63,-62.8 167.97,-68.77"/>
</g>
</g>
</svg>
