<?xml version="1.0" encoding="UTF-8" standalone="no"?>
<!DOCTYPE svg PUBLIC "-//W3C//DTD SVG 1.1//EN"
 "http://www.w3.org/Graphics/SVG/1.1/DTD/svg11.dtd">
<!-- Generated by graphviz version 9.0.0 (20230911.1827)
 -->
<!-- Title: G Pages: 1 -->
<svg width="509pt" height="129pt"
 viewBox="0.00 0.00 508.75 129.00" xmlns="http://www.w3.org/2000/svg" xmlns:xlink="http://www.w3.org/1999/xlink">
<g id="graph0" class="graph" transform="scale(1 1) rotate(0) translate(4 125)">
<title>G</title>
<polygon fill="white" stroke="none" points="-4,4 -4,-125 504.75,-125 504.75,4 -4,4"/>
<g id="clust1" class="cluster">
<title>cluster_3a1d593e</title>
<polygon fill="none" stroke="#dddddd" points="82,-8 82,-113 418.75,-113 418.75,-8 82,-8"/>
<text text-anchor="start" x="90" y="-95.7" font-family="Times,serif" font-size="14.00" fill="#dddddd">chain</text>
</g>
<!-- String_5ce33a58 -->
<g id="node1" class="node">
<title>String_5ce33a58</title>
<polygon fill="none" stroke="black" points="54,-66 51,-70 30,-70 27,-66 0,-66 0,-30 54,-30 54,-66"/>
<text text-anchor="middle" x="27" y="-42.95" font-family="Times,serif" font-size="14.00">input</text>
</g>
<!-- Include_361c294e -->
<g id="node3" class="node">
<title>Include_361c294e</title>
<path fill="none" stroke="black" d="M144.25,-66C144.25,-66 102,-66 102,-66 96,-66 90,-60 90,-54 90,-54 90,-42 90,-42 90,-36 96,-30 102,-30 102,-30 144.25,-30 144.25,-30 150.25,-30 156.25,-36 156.25,-42 156.25,-42 156.25,-54 156.25,-54 156.25,-60 150.25,-66 144.25,-66"/>
<text text-anchor="start" x="101.38" y="-49.7" font-family="Times,serif" font-weight="bold" font-size="14.00">Include</text>
<text text-anchor="start" x="98" y="-35.7" font-family="Times,serif" font-size="14.00">**/*.java</text>
</g>
<!-- String_5ce33a58&#45;&gt;Include_361c294e -->
<g id="edge1" class="edge">
<title>String_5ce33a58&#45;&gt;Include_361c294e</title>
<path fill="none" stroke="black" d="M54.47,-48C61.94,-48 70.26,-48 78.45,-48"/>
<polygon fill="black" stroke="black" points="78.32,-51.5 88.32,-48 78.32,-44.5 78.32,-51.5"/>
</g>
<!-- String_78a287ed -->
<g id="node2" class="node">
<title>String_78a287ed</title>
<polygon fill="none" stroke="black" points="500.75,-66 497.75,-70 476.75,-70 473.75,-66 446.75,-66 446.75,-30 500.75,-30 500.75,-66"/>
<text text-anchor="middle" x="473.75" y="-42.95" font-family="Times,serif" font-size="14.00">output</text>
</g>
<!-- OpenRewriteRecipe_15a902e7 -->
<g id="node4" class="node">
<title>OpenRewriteRecipe_15a902e7</title>
<path fill="none" stroke="black" d="M398.75,-80C398.75,-80 204.25,-80 204.25,-80 198.25,-80 192.25,-74 192.25,-68 192.25,-68 192.25,-28 192.25,-28 192.25,-22 198.25,-16 204.25,-16 204.25,-16 398.75,-16 398.75,-16 404.75,-16 410.75,-22 410.75,-28 410.75,-28 410.75,-68 410.75,-68 410.75,-74 404.75,-80 398.75,-80"/>
<text text-anchor="start" x="243" y="-63.7" font-family="Times,serif" font-weight="bold" font-size="14.00">OpenRewriteRecipe</text>
<text text-anchor="start" x="200.25" y="-49.7" font-family="Times,serif" font-size="14.00">org.openrewrite.java.ChangePackage</text>
<text text-anchor="start" x="215.25" y="-35.7" font-family="Times,serif" font-size="14.00">oldPackageName = &#39;com.acme&#39;</text>
<text text-anchor="start" x="204.38" y="-21.7" font-family="Times,serif" font-size="14.00">newPackageName = #companyPkg</text>
</g>
<!-- Include_361c294e&#45;&gt;OpenRewriteRecipe_15a902e7 -->
<g id="edge3" class="edge">
<title>Include_361c294e&#45;&gt;OpenRewriteRecipe_15a902e7</title>
<path fill="none" stroke="black" d="M156.47,-48C163.82,-48 172.04,-48 180.73,-48"/>
<polygon fill="black" stroke="black" points="180.44,-51.5 190.44,-48 180.44,-44.5 180.44,-51.5"/>
</g>
<!-- OpenRewriteRecipe_15a902e7&#45;&gt;String_78a287ed -->
<g id="edge2" class="edge">
<title>OpenRewriteRecipe_15a902e7&#45;&gt;String_78a287ed</title>
<path fill="none" stroke="black" d="M410.8,-48C419.31,-48 427.48,-48 434.94,-48"/>
<polygon fill="black" stroke="black" points="434.87,-51.5 444.87,-48 434.87,-44.5 434.87,-51.5"/>
</g>
</g>
</svg>
