<?xml version="1.0" encoding="UTF-8" standalone="no"?>
<!DOCTYPE svg PUBLIC "-//W3C//DTD SVG 1.1//EN"
 "http://www.w3.org/Graphics/SVG/1.1/DTD/svg11.dtd">
<!-- Generated by graphviz version 9.0.0 (20230911.1827)
 -->
<!-- Title: G Pages: 1 -->
<svg width="821pt" height="82pt"
 viewBox="0.00 0.00 821.00 81.50" xmlns="http://www.w3.org/2000/svg" xmlns:xlink="http://www.w3.org/1999/xlink">
<g id="graph0" class="graph" transform="scale(1 1) rotate(0) translate(4 77.5)">
<title>G</title>
<polygon fill="white" stroke="none" points="-4,4 -4,-77.5 817,-77.5 817,4 -4,4"/>
<!-- String_5ce33a58 -->
<g id="node1" class="node">
<title>String_5ce33a58</title>
<polygon fill="none" stroke="black" points="237.25,-73.5 234.25,-77.5 213.25,-77.5 210.25,-73.5 0,-73.5 0,0 237.25,0 237.25,-73.5"/>
<text text-anchor="middle" x="118.62" y="-56.2" font-family="Times,serif" font-size="14.00">input</text>
<text text-anchor="middle" x="118.62" y="-23.7" font-family="Times,serif" font-size="14.00">src/main/java/com/acme/Foo.java</text>
<text text-anchor="middle" x="118.62" y="-7.2" font-family="Times,serif" font-size="14.00">src/main/java/com/acme/model/Bar.java</text>
</g>
<!-- RewritePath_5b58ed3c -->
<g id="node2" class="node">
<title>RewritePath_5b58ed3c</title>
<path fill="none" stroke="black" d="M459.5,-68.75C459.5,-68.75 285.25,-68.75 285.25,-68.75 279.25,-68.75 273.25,-62.75 273.25,-56.75 273.25,-56.75 273.25,-16.75 273.25,-16.75 273.25,-10.75 279.25,-4.75 285.25,-4.75 285.25,-4.75 459.5,-4.75 459.5,-4.75 465.5,-4.75 471.5,-10.75 471.5,-16.75 471.5,-16.75 471.5,-56.75 471.5,-56.75 471.5,-62.75 465.5,-68.75 459.5,-68.75"/>
<text text-anchor="start" x="336" y="-52.45" font-family="Times,serif" font-weight="bold" font-size="14.00">RewritePath</text>
<text text-anchor="start" x="324" y="-38.45" font-family="Times,serif" font-size="14.00">src/main/java/(.*)</text>
<text text-anchor="start" x="361.88" y="-24.45" font-family="Times,serif" font-size="14.00"> ⇒ </text>
<text text-anchor="start" x="281.25" y="-10.45" font-family="Times,serif" font-size="14.00">&#39;sub&#45;module/src/main/java&#39; + #g1</text>
</g>
<!-- String_5ce33a58&#45;&gt;RewritePath_5b58ed3c -->
<g id="edge1" class="edge">
<title>String_5ce33a58&#45;&gt;RewritePath_5b58ed3c</title>
<path fill="none" stroke="black" d="M237.39,-36.75C245.48,-36.75 253.62,-36.75 261.66,-36.75"/>
<polygon fill="black" stroke="black" points="261.45,-40.25 271.45,-36.75 261.45,-33.25 261.45,-40.25"/>
</g>
<!-- String_78a287ed -->
<g id="node3" class="node">
<title>String_78a287ed</title>
<polygon fill="none" stroke="black" points="813,-73.5 810,-77.5 789,-77.5 786,-73.5 507.5,-73.5 507.5,0 813,0 813,-73.5"/>
<text text-anchor="middle" x="660.25" y="-56.2" font-family="Times,serif" font-size="14.00">output</text>
<text text-anchor="middle" x="660.25" y="-23.7" font-family="Times,serif" font-size="14.00">sub&#45;module/src/main/java/com/acme/Foo.java</text>
<text text-anchor="middle" x="660.25" y="-7.2" font-family="Times,serif" font-size="14.00">sub&#45;module/src/main/java/com/acme/model/Bar.java</text>
</g>
<!-- RewritePath_5b58ed3c&#45;&gt;String_78a287ed -->
<g id="edge2" class="edge">
<title>RewritePath_5b58ed3c&#45;&gt;String_78a287ed</title>
<path fill="none" stroke="black" d="M471.76,-36.75C479.55,-36.75 487.54,-36.75 495.62,-36.75"/>
<polygon fill="black" stroke="black" points="495.58,-40.25 505.58,-36.75 495.58,-33.25 495.58,-40.25"/>
</g>
</g>
</svg>
