<?xml version="1.0" encoding="UTF-8" standalone="no"?>
<!DOCTYPE svg PUBLIC "-//W3C//DTD SVG 1.1//EN"
 "http://www.w3.org/Graphics/SVG/1.1/DTD/svg11.dtd">
<!-- Generated by graphviz version 9.0.0 (20230911.1827)
 -->
<!-- Title: G Pages: 1 -->
<svg width="789pt" height="278pt"
 viewBox="0.00 0.00 788.75 278.00" xmlns="http://www.w3.org/2000/svg" xmlns:xlink="http://www.w3.org/1999/xlink">
<g id="graph0" class="graph" transform="scale(1 1) rotate(0) translate(4 274)">
<title>G</title>
<polygon fill="white" stroke="none" points="-4,4 -4,-274 784.75,-274 784.75,4 -4,4"/>
<g id="clust1" class="cluster">
<title>cluster_6175619b</title>
<polygon fill="none" stroke="#555555" points="66,-8 66,-262 718.75,-262 718.75,-8 66,-8"/>
<text text-anchor="start" x="74" y="-244.7" font-family="Times,serif" font-size="14.00" fill="#555555">combo</text>
</g>
<g id="clust2" class="cluster">
<title>cluster_4215838f</title>
<polygon fill="none" stroke="#555555" points="74,-16 74,-229 710.75,-229 710.75,-16 74,-16"/>
<text text-anchor="start" x="82" y="-211.7" font-family="Times,serif" font-size="14.00" fill="#555555">let</text>
</g>
<g id="clust3" class="cluster">
<title>cluster_184497d1</title>
<polygon fill="none" stroke="#555555" points="82,-24 82,-196 702.75,-196 702.75,-24 82,-24"/>
<text text-anchor="start" x="90" y="-178.7" font-family="Times,serif" font-size="14.00" fill="#555555">chain</text>
</g>
<g id="clust4" class="cluster">
<title>cluster_191ae03f</title>
<polygon fill="none" stroke="#555555" points="518.75,-38 518.75,-156 694.75,-156 694.75,-38 518.75,-38"/>
<text text-anchor="start" x="526.75" y="-138.7" font-family="Times,serif" font-size="14.00" fill="#555555">applyTo &#39;files/applied/to&#39;</text>
</g>
<g id="clust5" class="cluster">
<title>cluster_63c5efee</title>
<polygon fill="none" stroke="#555555" points="526.75,-46 526.75,-123 686.75,-123 686.75,-46 526.75,-46"/>
<text text-anchor="start" x="534.75" y="-105.7" font-family="Times,serif" font-size="14.00" fill="#555555">chain</text>
</g>
<g id="clust6" class="cluster">
<title>cluster_41fe9859</title>
<polygon fill="none" stroke="#555555" points="315.75,-32 315.75,-163 385.75,-163 385.75,-32 315.75,-32"/>
<text text-anchor="start" x="323.75" y="-145.7" font-family="Times,serif" font-size="14.00" fill="#555555">merge</text>
</g>
<!-- String_5ce33a58 -->
<g id="node1" class="node">
<title>String_5ce33a58</title>
<polygon fill="none" stroke="black" points="54,-103 51,-107 30,-107 27,-103 0,-103 0,-67 54,-67 54,-103"/>
<text text-anchor="middle" x="27" y="-79.95" font-family="Times,serif" font-size="14.00">input</text>
</g>
<!-- Include_3e2943ab -->
<g id="node3" class="node">
<title>Include_3e2943ab</title>
<path fill="none" stroke="black" d="M157.75,-103C157.75,-103 102,-103 102,-103 96,-103 90,-97 90,-91 90,-91 90,-79 90,-79 90,-73 96,-67 102,-67 102,-67 157.75,-67 157.75,-67 163.75,-67 169.75,-73 169.75,-79 169.75,-79 169.75,-91 169.75,-91 169.75,-97 163.75,-103 157.75,-103"/>
<text text-anchor="start" x="108.12" y="-86.7" font-family="Times,serif" font-weight="bold" font-size="14.00">Include</text>
<text text-anchor="start" x="98" y="-72.7" font-family="Times,serif" font-size="14.00">example/**</text>
</g>
<!-- String_5ce33a58&#45;&gt;Include_3e2943ab -->
<g id="edge1" class="edge">
<title>String_5ce33a58&#45;&gt;Include_3e2943ab</title>
<path fill="none" stroke="black" d="M54.24,-85C61.71,-85 70.1,-85 78.49,-85"/>
<polygon fill="black" stroke="black" points="78.33,-88.5 88.33,-85 78.33,-81.5 78.33,-88.5"/>
</g>
<!-- String_78a287ed -->
<g id="node2" class="node">
<title>String_78a287ed</title>
<polygon fill="none" stroke="black" points="780.75,-90 777.75,-94 756.75,-94 753.75,-90 726.75,-90 726.75,-54 780.75,-54 780.75,-90"/>
<text text-anchor="middle" x="753.75" y="-66.95" font-family="Times,serif" font-size="14.00">output</text>
</g>
<!-- Exclude_4a9f80d3 -->
<g id="node5" class="node">
<title>Exclude_4a9f80d3</title>
<path fill="none" stroke="black" d="M275.75,-103C275.75,-103 217.75,-103 217.75,-103 211.75,-103 205.75,-97 205.75,-91 205.75,-91 205.75,-79 205.75,-79 205.75,-73 211.75,-67 217.75,-67 217.75,-67 275.75,-67 275.75,-67 281.75,-67 287.75,-73 287.75,-79 287.75,-79 287.75,-91 287.75,-91 287.75,-97 281.75,-103 275.75,-103"/>
<text text-anchor="start" x="223.5" y="-86.7" font-family="Times,serif" font-weight="bold" font-size="14.00">Exclude</text>
<text text-anchor="start" x="213.75" y="-72.7" font-family="Times,serif" font-size="14.00">**/secret/**</text>
</g>
<!-- Include_3e2943ab&#45;&gt;Exclude_4a9f80d3 -->
<g id="edge3" class="edge">
<title>Include_3e2943ab&#45;&gt;Exclude_4a9f80d3</title>
<path fill="none" stroke="black" d="M170.09,-85C177.86,-85 186.13,-85 194.25,-85"/>
<polygon fill="black" stroke="black" points="194.03,-88.5 204.03,-85 194.03,-81.5 194.03,-88.5"/>
</g>
<!-- T4_64337702 -->
<g id="node4" class="node">
<title>T4_64337702</title>
<path fill="none" stroke="black" d="M666.75,-90C666.75,-90 636.75,-90 636.75,-90 630.75,-90 624.75,-84 624.75,-78 624.75,-78 624.75,-66 624.75,-66 624.75,-60 630.75,-54 636.75,-54 636.75,-54 666.75,-54 666.75,-54 672.75,-54 678.75,-60 678.75,-66 678.75,-66 678.75,-78 678.75,-78 678.75,-84 672.75,-90 666.75,-90"/>
<text text-anchor="start" x="643.88" y="-67.95" font-family="Times,serif" font-weight="bold" font-size="14.00">T4</text>
</g>
<!-- T4_64337702&#45;&gt;String_78a287ed -->
<g id="edge2" class="edge">
<title>T4_64337702&#45;&gt;String_78a287ed</title>
<path fill="none" stroke="black" d="M679.02,-72C689.96,-72 702.87,-72 714.8,-72"/>
<polygon fill="black" stroke="black" points="714.79,-75.5 724.79,-72 714.79,-68.5 714.79,-75.5"/>
</g>
<!-- T1_4e76dac -->
<g id="node7" class="node">
<title>T1_4e76dac</title>
<path fill="none" stroke="black" d="M365.75,-130C365.75,-130 335.75,-130 335.75,-130 329.75,-130 323.75,-124 323.75,-118 323.75,-118 323.75,-106 323.75,-106 323.75,-100 329.75,-94 335.75,-94 335.75,-94 365.75,-94 365.75,-94 371.75,-94 377.75,-100 377.75,-106 377.75,-106 377.75,-118 377.75,-118 377.75,-124 371.75,-130 365.75,-130"/>
<text text-anchor="start" x="342.88" y="-107.95" font-family="Times,serif" font-weight="bold" font-size="14.00">T1</text>
</g>
<!-- Exclude_4a9f80d3&#45;&gt;T1_4e76dac -->
<g id="edge6" class="edge">
<title>Exclude_4a9f80d3&#45;&gt;T1_4e76dac</title>
<path fill="none" stroke="black" d="M288.06,-95.67C296.16,-97.82 304.64,-100.06 312.62,-102.17"/>
<polygon fill="black" stroke="black" points="311.47,-105.49 322.03,-104.66 313.26,-98.72 311.47,-105.49"/>
</g>
<!-- T2_611df6e3 -->
<g id="node8" class="node">
<title>T2_611df6e3</title>
<path fill="none" stroke="black" d="M365.75,-76C365.75,-76 335.75,-76 335.75,-76 329.75,-76 323.75,-70 323.75,-64 323.75,-64 323.75,-52 323.75,-52 323.75,-46 329.75,-40 335.75,-40 335.75,-40 365.75,-40 365.75,-40 371.75,-40 377.75,-46 377.75,-52 377.75,-52 377.75,-64 377.75,-64 377.75,-70 371.75,-76 365.75,-76"/>
<text text-anchor="start" x="342.88" y="-53.95" font-family="Times,serif" font-weight="bold" font-size="14.00">T2</text>
</g>
<!-- Exclude_4a9f80d3&#45;&gt;T2_611df6e3 -->
<g id="edge7" class="edge">
<title>Exclude_4a9f80d3&#45;&gt;T2_611df6e3</title>
<path fill="none" stroke="black" d="M288.06,-74.33C296.16,-72.18 304.64,-69.94 312.62,-67.83"/>
<polygon fill="black" stroke="black" points="313.26,-71.28 322.03,-65.34 311.47,-64.51 313.26,-71.28"/>
</g>
<!-- UniquePath_6c67e137 -->
<g id="node6" class="node">
<title>UniquePath_6c67e137</title>
<path fill="none" stroke="black" d="M486.75,-90C486.75,-90 425.75,-90 425.75,-90 419.75,-90 413.75,-84 413.75,-78 413.75,-78 413.75,-66 413.75,-66 413.75,-60 419.75,-54 425.75,-54 425.75,-54 486.75,-54 486.75,-54 492.75,-54 498.75,-60 498.75,-66 498.75,-66 498.75,-78 498.75,-78 498.75,-84 492.75,-90 486.75,-90"/>
<text text-anchor="start" x="421.75" y="-73.7" font-family="Times,serif" font-weight="bold" font-size="14.00">UniquePath</text>
<text text-anchor="start" x="434.12" y="-59.7" font-family="Times,serif" font-size="14.00">UseLast</text>
</g>
<!-- T3_76c7beb3 -->
<g id="node9" class="node">
<title>T3_76c7beb3</title>
<path fill="none" stroke="black" d="M576.75,-90C576.75,-90 546.75,-90 546.75,-90 540.75,-90 534.75,-84 534.75,-78 534.75,-78 534.75,-66 534.75,-66 534.75,-60 540.75,-54 546.75,-54 546.75,-54 576.75,-54 576.75,-54 582.75,-54 588.75,-60 588.75,-66 588.75,-66 588.75,-78 588.75,-78 588.75,-84 582.75,-90 576.75,-90"/>
<text text-anchor="start" x="553.88" y="-67.95" font-family="Times,serif" font-weight="bold" font-size="14.00">T3</text>
</g>
<!-- UniquePath_6c67e137&#45;&gt;T3_76c7beb3 -->
<g id="edge8" class="edge">
<title>UniquePath_6c67e137&#45;&gt;T3_76c7beb3</title>
<path fill="none" stroke="black" d="M499.05,-72C506.95,-72 515.17,-72 522.93,-72"/>
<polygon fill="black" stroke="black" points="522.76,-75.5 532.76,-72 522.76,-68.5 522.76,-75.5"/>
</g>
<!-- T1_4e76dac&#45;&gt;UniquePath_6c67e137 -->
<g id="edge4" class="edge">
<title>T1_4e76dac&#45;&gt;UniquePath_6c67e137</title>
<path fill="none" stroke="black" d="M378.14,-101.8C385.8,-98.84 394.45,-95.5 403.11,-92.15"/>
<polygon fill="black" stroke="black" points="404.15,-95.5 412.21,-88.63 401.62,-88.97 404.15,-95.5"/>
</g>
<!-- T2_611df6e3&#45;&gt;UniquePath_6c67e137 -->
<g id="edge5" class="edge">
<title>T2_611df6e3&#45;&gt;UniquePath_6c67e137</title>
<path fill="none" stroke="black" d="M378.14,-61.57C385.55,-62.57 393.88,-63.7 402.26,-64.83"/>
<polygon fill="black" stroke="black" points="401.75,-68.29 412.13,-66.17 402.69,-61.36 401.75,-68.29"/>
</g>
<!-- T3_76c7beb3&#45;&gt;T4_64337702 -->
<g id="edge9" class="edge">
<title>T3_76c7beb3&#45;&gt;T4_64337702</title>
<path fill="none" stroke="black" d="M589.15,-72C596.64,-72 604.93,-72 612.95,-72"/>
<polygon fill="black" stroke="black" points="612.85,-75.5 622.85,-72 612.85,-68.5 612.85,-75.5"/>
</g>
</g>
</svg>
