<?xml version="1.0" encoding="UTF-8" standalone="no"?>
<!DOCTYPE svg PUBLIC "-//W3C//DTD SVG 1.1//EN"
 "http://www.w3.org/Graphics/SVG/1.1/DTD/svg11.dtd">
<!-- Generated by graphviz version 9.0.0 (20230911.1827)
 -->
<!-- Title: G Pages: 1 -->
<svg width="453pt" height="291pt"
 viewBox="0.00 0.00 453.00 291.00" xmlns="http://www.w3.org/2000/svg" xmlns:xlink="http://www.w3.org/1999/xlink">
<g id="graph0" class="graph" transform="scale(1 1) rotate(0) translate(4 287)">
<title>G</title>
<polygon fill="white" stroke="none" points="-4,4 -4,-287 449,-287 449,4 -4,4"/>
<g id="clust1" class="cluster">
<title>cluster_410ae9a3</title>
<polygon fill="none" stroke="#555555" points="66,-8 66,-275 371,-275 371,-8 66,-8"/>
<text text-anchor="start" x="74" y="-257.7" font-family="Times,serif" font-size="14.00" fill="#555555">combo</text>
</g>
<g id="clust2" class="cluster">
<title>cluster_1536602f</title>
<polygon fill="none" stroke="#555555" points="74,-16 74,-242 363,-242 363,-16 74,-16"/>
<text text-anchor="start" x="82" y="-224.7" font-family="Times,serif" font-size="14.00" fill="#555555">chain</text>
</g>
<g id="clust3" class="cluster">
<title>cluster_44c79f32</title>
<polygon fill="none" stroke="#555555" points="82,-24 82,-209 152,-209 152,-24 82,-24"/>
<text text-anchor="start" x="90" y="-191.7" font-family="Times,serif" font-size="14.00" fill="#555555">merge</text>
</g>
<!-- String_5ce33a58 -->
<g id="node1" class="node">
<title>String_5ce33a58</title>
<polygon fill="none" stroke="black" points="54,-122 51,-126 30,-126 27,-122 0,-122 0,-86 54,-86 54,-122"/>
<text text-anchor="middle" x="27" y="-98.95" font-family="Times,serif" font-size="14.00">input</text>
</g>
<!-- T1_7e242b4d -->
<g id="node4" class="node">
<title>T1_7e242b4d</title>
<path fill="none" stroke="black" d="M132,-176C132,-176 102,-176 102,-176 96,-176 90,-170 90,-164 90,-164 90,-152 90,-152 90,-146 96,-140 102,-140 102,-140 132,-140 132,-140 138,-140 144,-146 144,-152 144,-152 144,-164 144,-164 144,-170 138,-176 132,-176"/>
<text text-anchor="start" x="109.12" y="-153.95" font-family="Times,serif" font-weight="bold" font-size="14.00">T1</text>
</g>
<!-- String_5ce33a58&#45;&gt;T1_7e242b4d -->
<g id="edge2" class="edge">
<title>String_5ce33a58&#45;&gt;T1_7e242b4d</title>
<path fill="none" stroke="black" d="M53.05,-122.45C57.31,-125.4 61.74,-128.35 66,-131 70.36,-133.71 75.01,-136.44 79.66,-139.06"/>
<polygon fill="black" stroke="black" points="77.93,-142.1 88.38,-143.85 81.3,-135.97 77.93,-142.1"/>
</g>
<!-- T2_305f031 -->
<g id="node5" class="node">
<title>T2_305f031</title>
<path fill="none" stroke="black" d="M132,-122C132,-122 102,-122 102,-122 96,-122 90,-116 90,-110 90,-110 90,-98 90,-98 90,-92 96,-86 102,-86 102,-86 132,-86 132,-86 138,-86 144,-92 144,-98 144,-98 144,-110 144,-110 144,-116 138,-122 132,-122"/>
<text text-anchor="start" x="109.12" y="-99.95" font-family="Times,serif" font-weight="bold" font-size="14.00">T2</text>
</g>
<!-- String_5ce33a58&#45;&gt;T2_305f031 -->
<g id="edge3" class="edge">
<title>String_5ce33a58&#45;&gt;T2_305f031</title>
<path fill="none" stroke="black" d="M54.4,-104C61.89,-104 70.18,-104 78.2,-104"/>
<polygon fill="black" stroke="black" points="78.1,-107.5 88.1,-104 78.1,-100.5 78.1,-107.5"/>
</g>
<!-- T3_592e843a -->
<g id="node6" class="node">
<title>T3_592e843a</title>
<path fill="none" stroke="black" d="M132,-68C132,-68 102,-68 102,-68 96,-68 90,-62 90,-56 90,-56 90,-44 90,-44 90,-38 96,-32 102,-32 102,-32 132,-32 132,-32 138,-32 144,-38 144,-44 144,-44 144,-56 144,-56 144,-62 138,-68 132,-68"/>
<text text-anchor="start" x="109.12" y="-45.95" font-family="Times,serif" font-weight="bold" font-size="14.00">T3</text>
</g>
<!-- String_5ce33a58&#45;&gt;T3_592e843a -->
<g id="edge4" class="edge">
<title>String_5ce33a58&#45;&gt;T3_592e843a</title>
<path fill="none" stroke="black" d="M53.05,-85.55C57.31,-82.6 61.74,-79.65 66,-77 70.36,-74.29 75.01,-71.56 79.66,-68.94"/>
<polygon fill="black" stroke="black" points="81.3,-72.03 88.38,-64.15 77.93,-65.9 81.3,-72.03"/>
</g>
<!-- String_78a287ed -->
<g id="node2" class="node">
<title>String_78a287ed</title>
<polygon fill="none" stroke="black" points="445,-122 442,-126 421,-126 418,-122 391,-122 391,-86 445,-86 445,-122"/>
<text text-anchor="middle" x="418" y="-98.95" font-family="Times,serif" font-size="14.00">output</text>
</g>
<!-- T4_d5ae57e -->
<g id="node3" class="node">
<title>T4_d5ae57e</title>
<path fill="none" stroke="black" d="M343,-122C343,-122 313,-122 313,-122 307,-122 301,-116 301,-110 301,-110 301,-98 301,-98 301,-92 307,-86 313,-86 313,-86 343,-86 343,-86 349,-86 355,-92 355,-98 355,-98 355,-110 355,-110 355,-116 349,-122 343,-122"/>
<text text-anchor="start" x="320.12" y="-99.95" font-family="Times,serif" font-weight="bold" font-size="14.00">T4</text>
</g>
<!-- T4_d5ae57e&#45;&gt;String_78a287ed -->
<g id="edge1" class="edge">
<title>T4_d5ae57e&#45;&gt;String_78a287ed</title>
<path fill="none" stroke="black" d="M355.4,-104C362.89,-104 371.18,-104 379.2,-104"/>
<polygon fill="black" stroke="black" points="379.1,-107.5 389.1,-104 379.1,-100.5 379.1,-107.5"/>
</g>
<!-- UniquePath_235f4c10 -->
<g id="node7" class="node">
<title>UniquePath_235f4c10</title>
<path fill="none" stroke="black" d="M253,-122C253,-122 192,-122 192,-122 186,-122 180,-116 180,-110 180,-110 180,-98 180,-98 180,-92 186,-86 192,-86 192,-86 253,-86 253,-86 259,-86 265,-92 265,-98 265,-98 265,-110 265,-110 265,-116 259,-122 253,-122"/>
<text text-anchor="start" x="188" y="-105.7" font-family="Times,serif" font-weight="bold" font-size="14.00">UniquePath</text>
<text text-anchor="start" x="200.38" y="-91.7" font-family="Times,serif" font-size="14.00">UseLast</text>
</g>
<!-- T1_7e242b4d&#45;&gt;UniquePath_235f4c10 -->
<g id="edge6" class="edge">
<title>T1_7e242b4d&#45;&gt;UniquePath_235f4c10</title>
<path fill="none" stroke="black" d="M144.39,-144.23C154.01,-139.21 165.18,-133.38 175.99,-127.74"/>
<polygon fill="black" stroke="black" points="177.59,-130.86 184.84,-123.13 174.35,-124.65 177.59,-130.86"/>
</g>
<!-- T2_305f031&#45;&gt;UniquePath_235f4c10 -->
<g id="edge7" class="edge">
<title>T2_305f031&#45;&gt;UniquePath_235f4c10</title>
<path fill="none" stroke="black" d="M144.39,-104C151.8,-104 160.13,-104 168.51,-104"/>
<polygon fill="black" stroke="black" points="168.36,-107.5 178.36,-104 168.36,-100.5 168.36,-107.5"/>
</g>
<!-- T3_592e843a&#45;&gt;UniquePath_235f4c10 -->
<g id="edge8" class="edge">
<title>T3_592e843a&#45;&gt;UniquePath_235f4c10</title>
<path fill="none" stroke="black" d="M144.39,-63.77C154.01,-68.79 165.18,-74.62 175.99,-80.26"/>
<polygon fill="black" stroke="black" points="174.35,-83.35 184.84,-84.87 177.59,-77.14 174.35,-83.35"/>
</g>
<!-- UniquePath_235f4c10&#45;&gt;T4_d5ae57e -->
<g id="edge5" class="edge">
<title>UniquePath_235f4c10&#45;&gt;T4_d5ae57e</title>
<path fill="none" stroke="black" d="M265.3,-104C273.2,-104 281.42,-104 289.18,-104"/>
<polygon fill="black" stroke="black" points="289.01,-107.5 299.01,-104 289.01,-100.5 289.01,-107.5"/>
</g>
</g>
</svg>
