<?xml version="1.0" encoding="UTF-8" standalone="no"?>
<!DOCTYPE svg PUBLIC "-//W3C//DTD SVG 1.1//EN"
 "http://www.w3.org/Graphics/SVG/1.1/DTD/svg11.dtd">
<!-- Generated by graphviz version 9.0.0 (20230911.1827)
 -->
<!-- Title: G Pages: 1 -->
<svg width="343pt" height="98pt"
 viewBox="0.00 0.00 342.50 98.00" xmlns="http://www.w3.org/2000/svg" xmlns:xlink="http://www.w3.org/1999/xlink">
<g id="graph0" class="graph" transform="scale(1 1) rotate(0) translate(4 94)">
<title>G</title>
<polygon fill="white" stroke="none" points="-4,4 -4,-94 338.5,-94 338.5,4 -4,4"/>
<!-- String_5ce33a58 -->
<g id="node1" class="node">
<title>String_5ce33a58</title>
<polygon fill="none" stroke="black" points="101.5,-90 98.5,-94 77.5,-94 74.5,-90 0,-90 0,0 101.5,0 101.5,-90"/>
<text text-anchor="middle" x="50.75" y="-72.7" font-family="Times,serif" font-size="14.00">input</text>
<text text-anchor="middle" x="50.75" y="-40.2" font-family="Times,serif" font-size="14.00">README.md</text>
<text text-anchor="middle" x="50.75" y="-23.7" font-family="Times,serif" font-size="14.00">secret/passwd</text>
<text text-anchor="middle" x="50.75" y="-7.2" font-family="Times,serif" font-size="14.00">document.yaml</text>
</g>
<!-- Include_3ebff828 -->
<g id="node2" class="node">
<title>Include_3ebff828</title>
<path fill="none" stroke="black" d="M185,-63C185,-63 149.5,-63 149.5,-63 143.5,-63 137.5,-57 137.5,-51 137.5,-51 137.5,-39 137.5,-39 137.5,-33 143.5,-27 149.5,-27 149.5,-27 185,-27 185,-27 191,-27 197,-33 197,-39 197,-39 197,-51 197,-51 197,-57 191,-63 185,-63"/>
<text text-anchor="start" x="145.5" y="-46.7" font-family="Times,serif" font-weight="bold" font-size="14.00">Include</text>
<text text-anchor="start" x="148.12" y="-32.7" font-family="Times,serif" font-size="14.00">*.yaml</text>
</g>
<!-- String_5ce33a58&#45;&gt;Include_3ebff828 -->
<g id="edge1" class="edge">
<title>String_5ce33a58&#45;&gt;Include_3ebff828</title>
<path fill="none" stroke="black" d="M101.97,-45C109.95,-45 118.12,-45 125.83,-45"/>
<polygon fill="black" stroke="black" points="125.61,-48.5 135.61,-45 125.61,-41.5 125.61,-48.5"/>
</g>
<!-- String_78a287ed -->
<g id="node3" class="node">
<title>String_78a287ed</title>
<polygon fill="none" stroke="black" points="334.5,-73.5 331.5,-77.5 310.5,-77.5 307.5,-73.5 233,-73.5 233,-16.5 334.5,-16.5 334.5,-73.5"/>
<text text-anchor="middle" x="283.75" y="-56.2" font-family="Times,serif" font-size="14.00">output</text>
<text text-anchor="middle" x="283.75" y="-23.7" font-family="Times,serif" font-size="14.00">document.yaml</text>
</g>
<!-- Include_3ebff828&#45;&gt;String_78a287ed -->
<g id="edge2" class="edge">
<title>Include_3ebff828&#45;&gt;String_78a287ed</title>
<path fill="none" stroke="black" d="M197.44,-45C204.82,-45 213.02,-45 221.35,-45"/>
<polygon fill="black" stroke="black" points="221.19,-48.5 231.19,-45 221.19,-41.5 221.19,-48.5"/>
</g>
</g>
</svg>
