<?xml version="1.0" encoding="UTF-8" standalone="no"?>
<!DOCTYPE svg PUBLIC "-//W3C//DTD SVG 1.1//EN"
 "http://www.w3.org/Graphics/SVG/1.1/DTD/svg11.dtd">
<!-- Generated by graphviz version 9.0.0 (20230911.1827)
 -->
<!-- Title: G Pages: 1 -->
<svg width="972pt" height="143pt"
 viewBox="0.00 0.00 971.75 143.00" xmlns="http://www.w3.org/2000/svg" xmlns:xlink="http://www.w3.org/1999/xlink">
<g id="graph0" class="graph" transform="scale(1 1) rotate(0) translate(4 139)">
<title>G</title>
<polygon fill="white" stroke="none" points="-4,4 -4,-139 967.75,-139 967.75,4 -4,4"/>
<g id="clust1" class="cluster">
<title>cluster_66629f63</title>
<polygon fill="none" stroke="#555555" points="82,-8 82,-127 881.75,-127 881.75,-8 82,-8"/>
<text text-anchor="start" x="90" y="-109.7" font-family="Times,serif" font-size="14.00" fill="#555555">chain</text>
</g>
<!-- String_5ce33a58 -->
<g id="node1" class="node">
<title>String_5ce33a58</title>
<polygon fill="none" stroke="black" points="54,-73 51,-77 30,-77 27,-73 0,-73 0,-37 54,-37 54,-73"/>
<text text-anchor="middle" x="27" y="-49.95" font-family="Times,serif" font-size="14.00">input</text>
</g>
<!-- OpenRewriteRecipe_27a5328c -->
<g id="node3" class="node">
<title>OpenRewriteRecipe_27a5328c</title>
<path fill="none" stroke="black" d="M315.25,-94C315.25,-94 102,-94 102,-94 96,-94 90,-88 90,-82 90,-82 90,-28 90,-28 90,-22 96,-16 102,-16 102,-16 315.25,-16 315.25,-16 321.25,-16 327.25,-22 327.25,-28 327.25,-28 327.25,-82 327.25,-82 327.25,-88 321.25,-94 315.25,-94"/>
<text text-anchor="start" x="150.12" y="-77.7" font-family="Times,serif" font-weight="bold" font-size="14.00">OpenRewriteRecipe</text>
<text text-anchor="start" x="98" y="-63.7" font-family="Times,serif" font-size="14.00">org.openrewrite.maven.AddDependency</text>
<text text-anchor="start" x="119.38" y="-49.7" font-family="Times,serif" font-size="14.00">groupId = &#39;org.springframework&#39;</text>
<text text-anchor="start" x="143" y="-35.7" font-family="Times,serif" font-size="14.00">artifactId = &#39;spring&#45;core&#39;</text>
<text text-anchor="start" x="164.75" y="-21.7" font-family="Times,serif" font-size="14.00">version = &#39;5.7.1&#39;</text>
</g>
<!-- String_5ce33a58&#45;&gt;OpenRewriteRecipe_27a5328c -->
<g id="edge1" class="edge">
<title>String_5ce33a58&#45;&gt;OpenRewriteRecipe_27a5328c</title>
<path fill="none" stroke="black" d="M54.12,-55C61.31,-55 69.63,-55 78.6,-55"/>
<polygon fill="black" stroke="black" points="78.31,-58.5 88.31,-55 78.31,-51.5 78.31,-58.5"/>
</g>
<!-- String_78a287ed -->
<g id="node2" class="node">
<title>String_78a287ed</title>
<polygon fill="none" stroke="black" points="963.75,-73 960.75,-77 939.75,-77 936.75,-73 909.75,-73 909.75,-37 963.75,-37 963.75,-73"/>
<text text-anchor="middle" x="936.75" y="-49.95" font-family="Times,serif" font-size="14.00">output</text>
</g>
<!-- OpenRewriteRecipe_5fb97279 -->
<g id="node5" class="node">
<title>OpenRewriteRecipe_5fb97279</title>
<path fill="none" stroke="black" d="M588.5,-94C588.5,-94 375.25,-94 375.25,-94 369.25,-94 363.25,-88 363.25,-82 363.25,-82 363.25,-28 363.25,-28 363.25,-22 369.25,-16 375.25,-16 375.25,-16 588.5,-16 588.5,-16 594.5,-16 600.5,-22 600.5,-28 600.5,-28 600.5,-82 600.5,-82 600.5,-88 594.5,-94 588.5,-94"/>
<text text-anchor="start" x="423.38" y="-77.7" font-family="Times,serif" font-weight="bold" font-size="14.00">OpenRewriteRecipe</text>
<text text-anchor="start" x="371.25" y="-63.7" font-family="Times,serif" font-size="14.00">org.openrewrite.maven.AddDependency</text>
<text text-anchor="start" x="392.62" y="-49.7" font-family="Times,serif" font-size="14.00">groupId = &#39;org.springframework&#39;</text>
<text text-anchor="start" x="416.62" y="-35.7" font-family="Times,serif" font-size="14.00">artifactId = &#39;spring&#45;web&#39;</text>
<text text-anchor="start" x="438" y="-21.7" font-family="Times,serif" font-size="14.00">version = &#39;5.7.1&#39;</text>
</g>
<!-- OpenRewriteRecipe_27a5328c&#45;&gt;OpenRewriteRecipe_5fb97279 -->
<g id="edge3" class="edge">
<title>OpenRewriteRecipe_27a5328c&#45;&gt;OpenRewriteRecipe_5fb97279</title>
<path fill="none" stroke="black" d="M327.42,-55C335.38,-55 343.44,-55 351.46,-55"/>
<polygon fill="black" stroke="black" points="351.26,-58.5 361.26,-55 351.26,-51.5 351.26,-58.5"/>
</g>
<!-- OpenRewriteRecipe_32cb636e -->
<g id="node4" class="node">
<title>OpenRewriteRecipe_32cb636e</title>
<path fill="none" stroke="black" d="M861.75,-94C861.75,-94 648.5,-94 648.5,-94 642.5,-94 636.5,-88 636.5,-82 636.5,-82 636.5,-28 636.5,-28 636.5,-22 642.5,-16 648.5,-16 648.5,-16 861.75,-16 861.75,-16 867.75,-16 873.75,-22 873.75,-28 873.75,-28 873.75,-82 873.75,-82 873.75,-88 867.75,-94 861.75,-94"/>
<text text-anchor="start" x="696.62" y="-77.7" font-family="Times,serif" font-weight="bold" font-size="14.00">OpenRewriteRecipe</text>
<text text-anchor="start" x="644.5" y="-63.7" font-family="Times,serif" font-size="14.00">org.openrewrite.maven.AddDependency</text>
<text text-anchor="start" x="665.88" y="-49.7" font-family="Times,serif" font-size="14.00">groupId = &#39;org.springframework&#39;</text>
<text text-anchor="start" x="671.5" y="-35.7" font-family="Times,serif" font-size="14.00">artifactId = &#39;spring&#45;transaction&#39;</text>
<text text-anchor="start" x="711.25" y="-21.7" font-family="Times,serif" font-size="14.00">version = &#39;5.7.1&#39;</text>
</g>
<!-- OpenRewriteRecipe_32cb636e&#45;&gt;String_78a287ed -->
<g id="edge2" class="edge">
<title>OpenRewriteRecipe_32cb636e&#45;&gt;String_78a287ed</title>
<path fill="none" stroke="black" d="M874.18,-55C882.65,-55 890.74,-55 898.11,-55"/>
<polygon fill="black" stroke="black" points="897.9,-58.5 907.9,-55 897.9,-51.5 897.9,-58.5"/>
</g>
<!-- OpenRewriteRecipe_5fb97279&#45;&gt;OpenRewriteRecipe_32cb636e -->
<g id="edge4" class="edge">
<title>OpenRewriteRecipe_5fb97279&#45;&gt;OpenRewriteRecipe_32cb636e</title>
<path fill="none" stroke="black" d="M600.67,-55C608.63,-55 616.69,-55 624.71,-55"/>
<polygon fill="black" stroke="black" points="624.51,-58.5 634.51,-55 624.51,-51.5 624.51,-58.5"/>
</g>
</g>
</svg>
