<?xml version="1.0" encoding="UTF-8" standalone="no"?>
<!DOCTYPE svg PUBLIC "-//W3C//DTD SVG 1.1//EN"
 "http://www.w3.org/Graphics/SVG/1.1/DTD/svg11.dtd">
<!-- Generated by graphviz version 9.0.0 (20230911.1827)
 -->
<!-- Title: G Pages: 1 -->
<svg width="321pt" height="293pt"
 viewBox="0.00 0.00 321.00 293.00" xmlns="http://www.w3.org/2000/svg" xmlns:xlink="http://www.w3.org/1999/xlink">
<g id="graph0" class="graph" transform="scale(1 1) rotate(0) translate(4 289)">
<title>G</title>
<polygon fill="white" stroke="none" points="-4,4 -4,-289 317,-289 317,4 -4,4"/>
<g id="clust1" class="cluster">
<title>cluster_3a320ade</title>
<polygon fill="none" stroke="#555555" points="82,-8 82,-277 231,-277 231,-8 82,-8"/>
<text text-anchor="start" x="90" y="-259.7" font-family="Times,serif" font-size="14.00" fill="#555555">merge</text>
</g>
<!-- String_5ce33a58 -->
<g id="node1" class="node">
<title>String_5ce33a58</title>
<polygon fill="none" stroke="black" points="54,-148 51,-152 30,-152 27,-148 0,-148 0,-112 54,-112 54,-148"/>
<text text-anchor="middle" x="27" y="-124.95" font-family="Times,serif" font-size="14.00">input</text>
</g>
<!-- RewritePath_545de5a4 -->
<g id="node3" class="node">
<title>RewritePath_545de5a4</title>
<path fill="none" stroke="black" d="M211,-244C211,-244 102,-244 102,-244 96,-244 90,-238 90,-232 90,-232 90,-192 90,-192 90,-186 96,-180 102,-180 102,-180 211,-180 211,-180 217,-180 223,-186 223,-192 223,-192 223,-232 223,-232 223,-238 217,-244 211,-244"/>
<text text-anchor="start" x="120.12" y="-227.7" font-family="Times,serif" font-weight="bold" font-size="14.00">RewritePath</text>
<text text-anchor="start" x="121.25" y="-213.7" font-family="Times,serif" font-size="14.00">template/(.*)</text>
<text text-anchor="start" x="146" y="-199.7" font-family="Times,serif" font-size="14.00"> ⇒ </text>
<text text-anchor="start" x="98" y="-185.7" font-family="Times,serif" font-size="14.00">&#39;module&#45;1&#39; + &#39;/&#39; + #g1</text>
</g>
<!-- String_5ce33a58&#45;&gt;RewritePath_545de5a4 -->
<g id="edge1" class="edge">
<title>String_5ce33a58&#45;&gt;RewritePath_545de5a4</title>
<path fill="none" stroke="black" d="M50.87,-148.49C60.3,-155.81 71.46,-164.11 82,-171 83.38,-171.9 84.77,-172.8 86.19,-173.7"/>
<polygon fill="black" stroke="black" points="84.07,-176.51 94.42,-178.79 87.75,-170.55 84.07,-176.51"/>
</g>
<!-- RewritePath_29ef6856 -->
<g id="node4" class="node">
<title>RewritePath_29ef6856</title>
<path fill="none" stroke="black" d="M211,-162C211,-162 102,-162 102,-162 96,-162 90,-156 90,-150 90,-150 90,-110 90,-110 90,-104 96,-98 102,-98 102,-98 211,-98 211,-98 217,-98 223,-104 223,-110 223,-110 223,-150 223,-150 223,-156 217,-162 211,-162"/>
<text text-anchor="start" x="120.12" y="-145.7" font-family="Times,serif" font-weight="bold" font-size="14.00">RewritePath</text>
<text text-anchor="start" x="121.25" y="-131.7" font-family="Times,serif" font-size="14.00">template/(.*)</text>
<text text-anchor="start" x="146" y="-117.7" font-family="Times,serif" font-size="14.00"> ⇒ </text>
<text text-anchor="start" x="98" y="-103.7" font-family="Times,serif" font-size="14.00">&#39;module&#45;2&#39; + &#39;/&#39; + #g1</text>
</g>
<!-- String_5ce33a58&#45;&gt;RewritePath_29ef6856 -->
<g id="edge2" class="edge">
<title>String_5ce33a58&#45;&gt;RewritePath_29ef6856</title>
<path fill="none" stroke="black" d="M54.42,-130C61.62,-130 69.8,-130 78.32,-130"/>
<polygon fill="black" stroke="black" points="78.14,-133.5 88.14,-130 78.14,-126.5 78.14,-133.5"/>
</g>
<!-- RewritePath_ab7a938 -->
<g id="node5" class="node">
<title>RewritePath_ab7a938</title>
<path fill="none" stroke="black" d="M211,-80C211,-80 102,-80 102,-80 96,-80 90,-74 90,-68 90,-68 90,-28 90,-28 90,-22 96,-16 102,-16 102,-16 211,-16 211,-16 217,-16 223,-22 223,-28 223,-28 223,-68 223,-68 223,-74 217,-80 211,-80"/>
<text text-anchor="start" x="120.12" y="-63.7" font-family="Times,serif" font-weight="bold" font-size="14.00">RewritePath</text>
<text text-anchor="start" x="121.25" y="-49.7" font-family="Times,serif" font-size="14.00">template/(.*)</text>
<text text-anchor="start" x="146" y="-35.7" font-family="Times,serif" font-size="14.00"> ⇒ </text>
<text text-anchor="start" x="98" y="-21.7" font-family="Times,serif" font-size="14.00">&#39;module&#45;3&#39; + &#39;/&#39; + #g1</text>
</g>
<!-- String_5ce33a58&#45;&gt;RewritePath_ab7a938 -->
<g id="edge3" class="edge">
<title>String_5ce33a58&#45;&gt;RewritePath_ab7a938</title>
<path fill="none" stroke="black" d="M50.87,-111.51C60.3,-104.19 71.46,-95.89 82,-89 83.38,-88.1 84.77,-87.2 86.19,-86.3"/>
<polygon fill="black" stroke="black" points="87.75,-89.45 94.42,-81.21 84.07,-83.49 87.75,-89.45"/>
</g>
<!-- String_78a287ed -->
<g id="node2" class="node">
<title>String_78a287ed</title>
<polygon fill="none" stroke="black" points="313,-148 310,-152 289,-152 286,-148 259,-148 259,-112 313,-112 313,-148"/>
<text text-anchor="middle" x="286" y="-124.95" font-family="Times,serif" font-size="14.00">output</text>
</g>
<!-- RewritePath_545de5a4&#45;&gt;String_78a287ed -->
<g id="edge4" class="edge">
<title>RewritePath_545de5a4&#45;&gt;String_78a287ed</title>
<path fill="none" stroke="black" d="M217.29,-179.58C221.98,-176.76 226.6,-173.88 231,-171 238.41,-166.15 246.13,-160.61 253.34,-155.21"/>
<polygon fill="black" stroke="black" points="255.1,-158.26 260.93,-149.41 250.85,-152.7 255.1,-158.26"/>
</g>
<!-- RewritePath_29ef6856&#45;&gt;String_78a287ed -->
<g id="edge5" class="edge">
<title>RewritePath_29ef6856&#45;&gt;String_78a287ed</title>
<path fill="none" stroke="black" d="M223.49,-130C231.71,-130 239.87,-130 247.44,-130"/>
<polygon fill="black" stroke="black" points="247.25,-133.5 257.25,-130 247.25,-126.5 247.25,-133.5"/>
</g>
<!-- RewritePath_ab7a938&#45;&gt;String_78a287ed -->
<g id="edge6" class="edge">
<title>RewritePath_ab7a938&#45;&gt;String_78a287ed</title>
<path fill="none" stroke="black" d="M217.29,-80.42C221.98,-83.24 226.6,-86.12 231,-89 238.41,-93.85 246.13,-99.39 253.34,-104.79"/>
<polygon fill="black" stroke="black" points="250.85,-107.3 260.93,-110.59 255.1,-101.74 250.85,-107.3"/>
</g>
</g>
</svg>
