<?xml version="1.0" encoding="UTF-8" standalone="no"?>
<!DOCTYPE svg PUBLIC "-//W3C//DTD SVG 1.1//EN"
 "http://www.w3.org/Graphics/SVG/1.1/DTD/svg11.dtd">
<!-- Generated by graphviz version 9.0.0 (20230911.1827)
 -->
<!-- Title: G Pages: 1 -->
<svg width="821pt" height="170pt"
 viewBox="0.00 0.00 821.25 170.00" xmlns="http://www.w3.org/2000/svg" xmlns:xlink="http://www.w3.org/1999/xlink">
<g id="graph0" class="graph" transform="scale(1 1) rotate(0) translate(4 166)">
<title>G</title>
<polygon fill="white" stroke="none" points="-4,4 -4,-166 817.25,-166 817.25,4 -4,4"/>
<g id="clust1" class="cluster">
<title>cluster_3d3ba765</title>
<polygon fill="none" stroke="#555555" points="260.25,-8 260.25,-154 580,-154 580,-8 260.25,-8"/>
<text text-anchor="start" x="268.25" y="-136.7" font-family="Times,serif" font-size="14.00" fill="#555555">combo</text>
</g>
<g id="clust2" class="cluster">
<title>cluster_58e6d4b8</title>
<polygon fill="none" stroke="#555555" points="268.25,-16 268.25,-121 572,-121 572,-16 268.25,-16"/>
<text text-anchor="start" x="276.25" y="-103.7" font-family="Times,serif" font-size="14.00" fill="#555555">chain</text>
</g>
<!-- String_2dbe250d -->
<g id="node1" class="node">
<title>String_2dbe250d</title>
<polygon fill="none" stroke="black" points="240.25,-84.5 237.25,-88.5 216.25,-88.5 213.25,-84.5 0,-84.5 0,-27.5 240.25,-27.5 240.25,-84.5"/>
<text text-anchor="middle" x="120.12" y="-67.2" font-family="Times,serif" font-size="14.00">input</text>
<text text-anchor="middle" x="120.12" y="-34.7" font-family="Times,serif" font-size="14.00">README.md: hello&#45;world&#45;app example</text>
</g>
<!-- Include_51850751 -->
<g id="node4" class="node">
<title>Include_51850751</title>
<path fill="none" stroke="black" d="M335.75,-88C335.75,-88 288.25,-88 288.25,-88 282.25,-88 276.25,-82 276.25,-76 276.25,-76 276.25,-36 276.25,-36 276.25,-30 282.25,-24 288.25,-24 288.25,-24 335.75,-24 335.75,-24 341.75,-24 347.75,-30 347.75,-36 347.75,-36 347.75,-76 347.75,-76 347.75,-82 341.75,-88 335.75,-88"/>
<text text-anchor="start" x="290.25" y="-71.7" font-family="Times,serif" font-weight="bold" font-size="14.00">Include</text>
<text text-anchor="start" x="289.12" y="-57.7" font-family="Times,serif" font-size="14.00">**/*.md</text>
<text text-anchor="start" x="287.25" y="-43.7" font-family="Times,serif" font-size="14.00">**/*.xml</text>
<text text-anchor="start" x="284.25" y="-29.7" font-family="Times,serif" font-size="14.00">**/*.yaml</text>
</g>
<!-- String_2dbe250d&#45;&gt;Include_51850751 -->
<g id="edge2" class="edge">
<title>String_2dbe250d&#45;&gt;Include_51850751</title>
<path fill="none" stroke="black" d="M240.57,-56C248.95,-56 257.06,-56 264.61,-56"/>
<polygon fill="black" stroke="black" points="264.46,-59.5 274.46,-56 264.46,-52.5 264.46,-59.5"/>
</g>
<!-- String_553f1d75 -->
<g id="node2" class="node">
<title>String_553f1d75</title>
<polygon fill="none" stroke="black" points="813.25,-84.5 810.25,-88.5 789.25,-88.5 786.25,-84.5 600,-84.5 600,-27.5 813.25,-27.5 813.25,-84.5"/>
<text text-anchor="middle" x="706.62" y="-67.2" font-family="Times,serif" font-size="14.00">output</text>
<text text-anchor="middle" x="706.62" y="-34.7" font-family="Times,serif" font-size="14.00">README.md: my&#45;project example</text>
</g>
<!-- ReplaceText_4264b240 -->
<g id="node3" class="node">
<title>ReplaceText_4264b240</title>
<path fill="none" stroke="black" d="M552,-74C552,-74 395.75,-74 395.75,-74 389.75,-74 383.75,-68 383.75,-62 383.75,-62 383.75,-50 383.75,-50 383.75,-44 389.75,-38 395.75,-38 395.75,-38 552,-38 552,-38 558,-38 564,-44 564,-50 564,-50 564,-62 564,-62 564,-68 558,-74 552,-74"/>
<text text-anchor="start" x="438.25" y="-57.7" font-family="Times,serif" font-weight="bold" font-size="14.00">ReplaceText</text>
<text text-anchor="start" x="391.75" y="-43.7" font-family="Times,serif" font-size="14.00">hello&#45;world&#45;app ⇒ #artifactId</text>
</g>
<!-- ReplaceText_4264b240&#45;&gt;String_553f1d75 -->
<g id="edge1" class="edge">
<title>ReplaceText_4264b240&#45;&gt;String_553f1d75</title>
<path fill="none" stroke="black" d="M564.42,-56C572.25,-56 580.26,-56 588.27,-56"/>
<polygon fill="black" stroke="black" points="588.09,-59.5 598.09,-56 588.09,-52.5 588.09,-59.5"/>
</g>
<!-- Include_51850751&#45;&gt;ReplaceText_4264b240 -->
<g id="edge3" class="edge">
<title>Include_51850751&#45;&gt;ReplaceText_4264b240</title>
<path fill="none" stroke="black" d="M348.09,-56C355.5,-56 363.67,-56 372.19,-56"/>
<polygon fill="black" stroke="black" points="372.02,-59.5 382.02,-56 372.02,-52.5 372.02,-59.5"/>
</g>
</g>
</svg>
